{
	"asset":{
		"generator":"Khronos glTF Blender I/O v5.1.19",
		"version":"2.0"
	},
	"scene":0,
	"scenes":[
		{
			"name":"Scene",
			"nodes":[
				0,
				1,
				2,
				3,
				4,
				5
			]
		}
	],
	"nodes":[
		{
			"mesh":0,
			"name":"base"
		},
		{
			"mesh":1,
			"name":"side buildings"
		},
		{
			"mesh":2,
			"name":"roofs",
			"translation":[
				0,
				3.2084543704986572,
				0
			]
		},
		{
			"mesh":3,
			"name":"posts",
			"scale":[
				0.11010502278804779,
				0.6777103543281555,
				0.11010502278804779
			],
			"translation":[
				-1.1159193515777588,
				1.0257542133331299,
				1.3212552070617676
			]
		},
		{
			"mesh":4,
			"name":"main"
		},
		{
			"mesh":5,
			"name":"roofs.001",
			"translation":[
				0,
				3.2084543704986572,
				0
			]
		}
	],
	"materials":[
		{
			"doubleSided":true,
			"name":"Material.001",
			"pbrMetallicRoughness":{
				"baseColorFactor":[
					0,
					0.8000074625015259,
					0.025455275550484657,
					1
				],
				"metallicFactor":0,
				"roughnessFactor":0.5
			}
		}
	],
	"meshes":[
		{
			"name":"Cube.002",
			"primitives":[
				{
					"attributes":{
						"POSITION":0,
						"NORMAL":1,
						"TEXCOORD_0":2
					},
					"indices":3
				}
			]
		},
		{
			"name":"Cube.003",
			"primitives":[
				{
					"attributes":{
						"POSITION":4,
						"NORMAL":5,
						"TEXCOORD_0":6
					},
					"indices":7
				}
			]
		},
		{
			"name":"Circle",
			"primitives":[
				{
					"attributes":{
						"POSITION":8,
						"NORMAL":9,
						"TEXCOORD_0":10
					},
					"indices":11,
					"material":0
				}
			]
		},
		{
			"name":"Cylinder",
			"primitives":[
				{
					"attributes":{
						"POSITION":12,
						"NORMAL":13,
						"TEXCOORD_0":14
					},
					"indices":15
				}
			]
		},
		{
			"name":"Cube.001",
			"primitives":[
				{
					"attributes":{
						"POSITION":16,
						"NORMAL":17,
						"TEXCOORD_0":18
					},
					"indices":19
				}
			]
		},
		{
			"name":"Circle.001",
			"primitives":[
				{
					"attributes":{
						"POSITION":20,
						"NORMAL":21,
						"TEXCOORD_0":22
					},
					"indices":23,
					"material":0
				}
			]
		}
	],
	"accessors":[
		{
			"bufferView":0,
			"componentType":5126,
			"count":114,
			"max":[
				5.297386646270752,
				0.42996907234191895,
				3.1878316402435303
			],
			"min":[
				-5.297386646270752,
				-0.42996907234191895,
				-3.1878316402435303
			],
			"type":"VEC3"
		},
		{
			"bufferView":1,
			"componentType":5126,
			"count":114,
			"type":"VEC3"
		},
		{
			"bufferView":2,
			"componentType":5126,
			"count":114,
			"type":"VEC2"
		},
		{
			"bufferView":3,
			"componentType":5123,
			"count":360,
			"type":"SCALAR"
		},
		{
			"bufferView":4,
			"componentType":5126,
			"count":68,
			"max":[
				4.213220596313477,
				1.4222545623779297,
				3.1878316402435303
			],
			"min":[
				-4.15087890625,
				0.42996907234191895,
				-2.616741418838501
			],
			"type":"VEC3"
		},
		{
			"bufferView":5,
			"componentType":5126,
			"count":68,
			"type":"VEC3"
		},
		{
			"bufferView":6,
			"componentType":5126,
			"count":68,
			"type":"VEC2"
		},
		{
			"bufferView":7,
			"componentType":5123,
			"count":102,
			"type":"SCALAR"
		},
		{
			"bufferView":8,
			"componentType":5126,
			"count":56,
			"max":[
				4.212494373321533,
				-1.4719611406326294,
				2.632884979248047
			],
			"min":[
				-4.155902862548828,
				-1.7979809045791626,
				-1.1204662322998047
			],
			"type":"VEC3"
		},
		{
			"bufferView":9,
			"componentType":5126,
			"count":56,
			"type":"VEC3"
		},
		{
			"bufferView":10,
			"componentType":5126,
			"count":56,
			"type":"VEC2"
		},
		{
			"bufferView":11,
			"componentType":5123,
			"count":84,
			"type":"SCALAR"
		},
		{
			"bufferView":12,
			"componentType":5126,
			"count":768,
			"max":[
				21.327693939208984,
				1,
				1
			],
			"min":[
				-1,
				-1,
				-1
			],
			"type":"VEC3"
		},
		{
			"bufferView":13,
			"componentType":5126,
			"count":768,
			"type":"VEC3"
		},
		{
			"bufferView":14,
			"componentType":5126,
			"count":768,
			"type":"VEC2"
		},
		{
			"bufferView":15,
			"componentType":5123,
			"count":1488,
			"type":"SCALAR"
		},
		{
			"bufferView":16,
			"componentType":5126,
			"count":20,
			"max":[
				2.3447914123535156,
				1.8848110437393188,
				1.0730681419372559
			],
			"min":[
				-2.416961193084717,
				0.42996907234191895,
				-2.616741418838501
			],
			"type":"VEC3"
		},
		{
			"bufferView":17,
			"componentType":5126,
			"count":20,
			"type":"VEC3"
		},
		{
			"bufferView":18,
			"componentType":5126,
			"count":20,
			"type":"VEC2"
		},
		{
			"bufferView":19,
			"componentType":5123,
			"count":30,
			"type":"SCALAR"
		},
		{
			"bufferView":20,
			"componentType":5126,
			"count":28,
			"max":[
				1.342668890953064,
				-0.9694442749023438,
				1.6252751350402832
			],
			"min":[
				-1.3371299505233765,
				-1.6126036643981934,
				0.3939729928970337
			],
			"type":"VEC3"
		},
		{
			"bufferView":21,
			"componentType":5126,
			"count":28,
			"type":"VEC3"
		},
		{
			"bufferView":22,
			"componentType":5126,
			"count":28,
			"type":"VEC2"
		},
		{
			"bufferView":23,
			"componentType":5123,
			"count":42,
			"type":"SCALAR"
		}
	],
	"bufferViews":[
		{
			"buffer":0,
			"byteLength":1368,
			"byteOffset":0,
			"target":34962
		},
		{
			"buffer":0,
			"byteLength":1368,
			"byteOffset":1368,
			"target":34962
		},
		{
			"buffer":0,
			"byteLength":912,
			"byteOffset":2736,
			"target":34962
		},
		{
			"buffer":0,
			"byteLength":720,
			"byteOffset":3648,
			"target":34963
		},
		{
			"buffer":0,
			"byteLength":816,
			"byteOffset":4368,
			"target":34962
		},
		{
			"buffer":0,
			"byteLength":816,
			"byteOffset":5184,
			"target":34962
		},
		{
			"buffer":0,
			"byteLength":544,
			"byteOffset":6000,
			"target":34962
		},
		{
			"buffer":0,
			"byteLength":204,
			"byteOffset":6544,
			"target":34963
		},
		{
			"buffer":0,
			"byteLength":672,
			"byteOffset":6748,
			"target":34962
		},
		{
			"buffer":0,
			"byteLength":672,
			"byteOffset":7420,
			"target":34962
		},
		{
			"buffer":0,
			"byteLength":448,
			"byteOffset":8092,
			"target":34962
		},
		{
			"buffer":0,
			"byteLength":168,
			"byteOffset":8540,
			"target":34963
		},
		{
			"buffer":0,
			"byteLength":9216,
			"byteOffset":8708,
			"target":34962
		},
		{
			"buffer":0,
			"byteLength":9216,
			"byteOffset":17924,
			"target":34962
		},
		{
			"buffer":0,
			"byteLength":6144,
			"byteOffset":27140,
			"target":34962
		},
		{
			"buffer":0,
			"byteLength":2976,
			"byteOffset":33284,
			"target":34963
		},
		{
			"buffer":0,
			"byteLength":240,
			"byteOffset":36260,
			"target":34962
		},
		{
			"buffer":0,
			"byteLength":240,
			"byteOffset":36500,
			"target":34962
		},
		{
			"buffer":0,
			"byteLength":160,
			"byteOffset":36740,
			"target":34962
		},
		{
			"buffer":0,
			"byteLength":60,
			"byteOffset":36900,
			"target":34963
		},
		{
			"buffer":0,
			"byteLength":336,
			"byteOffset":36960,
			"target":34962
		},
		{
			"buffer":0,
			"byteLength":336,
			"byteOffset":37296,
			"target":34962
		},
		{
			"buffer":0,
			"byteLength":224,
			"byteOffset":37632,
			"target":34962
		},
		{
			"buffer":0,
			"byteLength":84,
			"byteOffset":37856,
			"target":34963
		}
	],
	"buffers":[
		{
			"byteLength":37940,
			"uri":"OCH%20BLDNG.bin"
		}
	]
}
